All the episode of Blood+ (Blood Plus) Season 3 (Ep 26-38) at 480p Video quality.

Please seed after you download :)


-----------------------------------------------------------------------------------

Info
-----------------------------------------------------------------------------------

General
--------

Format                                   : MPEG-4
Format profile                           : Base Media
Codec ID                                 : isom
File size                                : 62.5 MiB
Duration                                 : 23mn 55s
Overall bit rate mode                    : Variable
Overall bit rate                         : 365 Kbps


Video
------

ID                                       : 1
ID                                       : 1
Format                                   : AVC
Format/Info                              : Advanced Video Codec
Format profile                           : High@L3.1
Format settings, CABAC                   : Yes
Format settings, ReFrames                : 16 frames
Codec ID                                 : avc1
Codec ID/Info                            : Advanced Video Coding
Duration                                 : 23mn 55s
Bit rate mode                            : Variable
Bit rate                                 : 330 Kbps
Maximum bit rate                         : 3 689 Kbps
Width                                    : 512 pixels
Height                                   : 384 pixels
Display aspect ratio                     : 4:3
Frame rate mode                          : Constant
Frame rate                               : 29.970 fps
Color space                              : YUV
Chroma subsampling                       : 4:2:0
Bit depth                                : 8 bits
Scan type                                : Progressive
Bits/(Pixel*Frame)                       : 0.056
Stream size                              : 56.5 MiB (90%)
Writing library                          : x264 core 60

Audio
-------

ID                                       : 2
Format                                   : AAC
Format/Info                              : Advanced Audio Codec
Format profile                           : HE-AACv2 / HE-AAC / LC
Codec ID                                 : 40
Duration                                 : 23mn 55s
Bit rate mode                            : Variable
Bit rate                                 : 32.2 Kbps
Maximum bit rate                         : 36.7 Kbps
Channel(s)                               : 2 channels / 1 channel / 1 channel
Channel positions                        : Front: L R / Front: C / Front: C
Sampling rate                            : 48.0 KHz / 48.0 KHz / 24.0 KHz
Compression mode                         : Lossy
Stream size                              : 5.52 MiB (9%)

----------------------------------------------------------------------------------

Story
----------------------------------------------------------------------------------

Under the care of her adoptive family, Saya Otonashi has been living the life of an anemic amnesiac, but otherwise ordinary schoolgirl. However, her happy life is shattered when she is attacked by a Chiropteran, learning that she is the only one who can defeat them. Armed with her katana, Saya embarks on a journey with her family, allies, and her chevalier, Haji, to rid the world of the Chiropteran threat and rediscover her identity. The course of the journey reveals the background history of the Chiropterans and Saya's very deep past, which extends into the mid-19th century.
The series is initially set in September 2005 Okinawa City (Koza), on Okinawa Island, near the US Kadena Air Base. In the course of the series, Saya visits locations across the world, fighting enemy chiropteran and searching for her origins.


----------------------------------------------------------------------------------

Screenshots
----------------------------------------------------------------------------------

     
http://img202.imageshack.us/img202/7852/blood1b.png

   
http://img213.imageshack.us/img213/7387/blood2g.png

   
http://img15.imageshack.us/img15/7287/blood3k.png

     
http://img547.imageshack.us/img547/9110/blood4.png

   
http://img841.imageshack.us/img841/5333/blood5.png

  
---------------------------------------------------------------------------------


Thank you for downloading. 

Enjoy watching :)
And Request more anime at
__________________________

Cursator@ymail.com
___________________	